<svg width="60" height="60" viewBox="0 0 60 60" fill="none" xmlns="http://www.w3.org/2000/svg">
<g clip-path="url(#clip0_10128_106554)">
<path fill-rule="evenodd" clip-rule="evenodd" d="M30.0546 0C46.0037 0 59.1322 12.5853 60 28.3174L59.8919 60H29.946C13.4538 60 0 46.654 0 30.053C0 13.4541 13.4538 0 30.0546 0ZM27.1249 52.6213C27.9927 53.4901 28.7524 54.359 29.6201 55.3338C29.6986 55.2553 29.7203 55.2342 29.8082 55.2702L29.946 55.3338C31.3748 53.7635 32.9445 52.2865 34.749 51.1189C35.6846 50.5128 36.6832 49.9915 37.7576 49.5847C37.8662 49.5847 37.9748 49.3664 37.9748 49.2583C37.9748 49.1502 37.7576 48.9341 37.6495 48.9341C35.9134 48.3916 35.4795 47.8491 35.3709 46.1115V28.862C35.3709 28.6438 35.3709 28.5357 35.4795 28.4276C36.2387 27.6669 36.9984 26.9082 37.9748 26.4738C39.1684 25.9313 40.362 26.2577 40.5787 27.9932C40.6873 28.3196 40.6873 28.7519 40.6873 29.0782V45.1367C40.6873 45.6919 40.6873 46.2471 40.7021 46.8023C40.7159 47.3321 40.7429 47.8618 40.7959 48.3916C40.9045 50.3433 41.6637 52.0788 43.1826 53.3821C43.9423 54.0326 44.702 54.5751 45.4612 55.1176C45.787 55.3338 45.8951 55.3338 46.1123 55.1176C48.1594 53.149 50.377 51.4664 52.6005 49.7796C53.4418 49.1418 54.2836 48.5039 55.1175 47.8491C55.2611 47.7771 55.357 47.705 55.437 47.633L55.5519 47.5228C55.3347 47.3066 55.2261 47.1964 55.1175 46.9803C54.6836 47.1964 54.2497 47.4147 53.9245 47.6309C52.9475 48.1733 52.0798 47.9572 51.4286 46.9803C50.9948 46.3297 50.7775 45.4609 50.7775 44.7023V28.7519C50.7775 27.6669 51.212 27.1244 52.297 26.9082C52.5682 26.8531 52.8395 26.8277 53.1107 26.8002C53.382 26.7726 53.6532 26.7472 53.9245 26.6921C54.0039 26.4526 53.9663 26.2132 53.8111 26.0585C53.7555 26.0034 53.6845 25.9589 53.5986 25.9313C52.4861 25.5139 51.4626 24.9184 50.4994 24.2318C49.9601 23.8462 49.4398 23.4308 48.9334 23.0028C47.9904 22.1466 47.1152 21.2206 46.3613 20.1738C46.161 19.8962 45.9692 19.6101 45.787 19.3134L35.3709 27.4507C34.7198 23.5452 32.2246 21.049 28.9696 19.4215C25.9313 21.9178 23.0021 24.412 20.0724 26.9082C20.181 27.1244 20.3977 27.2346 20.5063 27.4507C20.8321 27.2346 21.0488 27.0163 21.3746 26.8002C22.7849 26.0394 24.1952 26.4738 24.7377 27.9932C24.9549 28.6438 25.1721 29.4045 25.1721 30.1632V45.569C25.1721 47.6309 24.6296 48.4997 22.351 48.6078C22.2424 48.6078 22.0252 48.7158 21.9171 48.8239C22.0252 48.9341 22.1338 49.1502 22.2424 49.2583C24.0871 50.0191 25.7146 51.104 27.1249 52.6213Z" fill="#1A1A1A"/>
<path fill-rule="evenodd" clip-rule="evenodd" d="M27.1249 52.6213C27.9926 53.4901 28.7523 54.359 29.6201 55.3338C29.6985 55.2553 29.7203 55.2342 29.8082 55.2702L29.9459 55.3338C31.3748 53.7635 32.9445 52.2865 34.749 51.1189C35.6846 50.5128 36.6832 49.9915 37.7576 49.5847C37.8662 49.5847 37.9748 49.3664 37.9748 49.2583C37.9748 49.1502 37.7576 48.9341 37.6495 48.9341C35.9134 48.3916 35.4795 47.8491 35.3709 46.1115V28.862C35.3709 28.6438 35.3709 28.5357 35.4795 28.4276C36.2387 27.6669 36.9984 26.9082 37.9748 26.4738C39.1684 25.9313 40.362 26.2577 40.5787 27.9932C40.6873 28.3196 40.6873 28.7519 40.6873 29.0782V45.1367C40.6873 45.6919 40.6873 46.2471 40.7021 46.8023C40.7159 47.3321 40.7429 47.8618 40.7959 48.3916C40.9045 50.3433 41.6637 52.0788 43.1826 53.3821C43.9423 54.0326 44.702 54.5751 45.4612 55.1176C45.787 55.3338 45.8951 55.3338 46.1123 55.1176C48.1593 53.149 50.377 51.4664 52.6005 49.7796C53.4418 49.1418 54.2836 48.5039 55.1175 47.8491C55.2611 47.7771 55.357 47.705 55.437 47.633L55.5519 47.5228C55.3347 47.3066 55.2261 47.1964 55.1175 46.9803C54.6836 47.1964 54.2497 47.4147 53.9244 47.6309C52.9475 48.1733 52.0797 47.9572 51.4286 46.9803C50.9947 46.3297 50.7775 45.4609 50.7775 44.7023V28.7519C50.7775 27.6669 51.212 27.1244 52.2969 26.9082C52.5682 26.8531 52.8394 26.8277 53.1107 26.8002C53.3819 26.7726 53.6532 26.7472 53.9244 26.6921C54.0039 26.4526 53.9663 26.2132 53.8111 26.0585C53.7554 26.0034 53.6844 25.9589 53.5986 25.9313C52.4861 25.5139 51.4625 24.9184 50.4994 24.2318C49.9601 23.8462 49.4398 23.4308 48.9334 23.0028C47.9903 22.1466 47.1151 21.2206 46.3613 20.1738C46.161 19.8962 45.9692 19.6101 45.787 19.3134L35.3709 27.4507C34.7198 23.5452 32.2245 21.049 28.9696 19.4215C25.9313 21.9178 23.0021 24.412 20.0724 26.9082C20.181 27.1244 20.3977 27.2346 20.5063 27.4507C20.8321 27.2346 21.0488 27.0163 21.3746 26.8002C22.7849 26.0394 24.1952 26.4738 24.7377 27.9932C24.9549 28.6438 25.1721 29.4045 25.1721 30.1632V45.569C25.1721 47.6309 24.6296 48.4997 22.351 48.6078C22.2424 48.6078 22.0252 48.7158 21.9171 48.8239C22.0252 48.9341 22.1338 49.1502 22.2424 49.2583C24.0871 50.0191 25.7146 51.104 27.1249 52.6213Z" fill="white"/>
</g>
<defs>
<clipPath id="clip0_10128_106554">
<rect width="60" height="60" fill="white"/>
</clipPath>
</defs>
</svg>
